# xmcd
#
# Track frame offsets: 
#        150
#        27089
#        55499
#        71099
#        93749
#        109184
#        122810
#        146730
#        166347
#        189020
#        223534
#        241079
#        267296
#        287906
#
# Disc length: 4066 seconds
#
# Revision: 0
# Processed by: cddbd v1.4PL0 Copyright (c) Steve Scherf et al.
# Submitted via: ExactAudioCopy v0.90b4
#
DISCID=d10fe00e
DTITLE=Van Morrison - Cambridge Corn Excange
DYEAR=1994
DGENRE=Celtic
TTITLE0=Sweet Thing
TTITLE1=A Town Called Paradise
TTITLE2=I Believe To My Soul
TTITLE3=So Quiet In Here > That's Where It's At
TTITLE4=Whenever God Shines His Light
TTITLE5=Crazy Love
TTITLE6=Madame George
TTITLE7=Hungry For Your Love
TTITLE8=Raincheck
TTITLE9=See Me Through > Soldier Of Fortune > Thank You (Falletinme Be
TTITLE9=Mice Elf Agin)
TTITLE10=Ain't That Loving You Baby
TTITLE11=Stormy Monday > Baby What You Want Me To Do
TTITLE12=Help Me
TTITLE13=Tupelo Honey
EXTD=
EXTT0=
EXTT1=
EXTT2=
EXTT3=
EXTT4=
EXTT5=
EXTT6=
EXTT7=
EXTT8=
EXTT9=
EXTT10=
EXTT11=
EXTT12=
EXTT13=
PLAYORDER=
